<?xml version="1.0" encoding="utf-8"?>
<!-- Generator: Adobe Illustrator 16.0.0, SVG Export Plug-In . SVG Version: 6.00 Build 0)  -->
<!DOCTYPE svg PUBLIC "-//W3C//DTD SVG 1.1//EN" "http://www.w3.org/Graphics/SVG/1.1/DTD/svg11.dtd">
<svg version="1.1" id="Layer_1" xmlns="http://www.w3.org/2000/svg" xmlns:xlink="http://www.w3.org/1999/xlink" x="0px" y="0px"
	 width="200px" height="200px" viewBox="0 0 200 200" enable-background="new 0 0 200 200" xml:space="preserve">
<path d="M100,200c-47.17,0-85.545-38.376-85.545-85.545C14.455,67.286,52.83,28.91,100,28.91s85.545,38.375,85.545,85.545
	C185.545,161.624,147.17,200,100,200z M100,50.237c-35.41,0-64.218,28.808-64.218,64.218S64.59,178.673,100,178.673
	c35.41,0,64.219-28.808,64.219-64.218S135.41,50.237,100,50.237z"/>
<g>
	<path d="M86.967,18.247h25.592v17.062H86.967V18.247z"/>
	<path d="M119.905,42.654H79.621V10.901h40.285V42.654z M94.313,27.962h10.9v-2.369h-10.9V27.962z"/>
</g>
<path d="M128.909,21.327H71.09c-5.889,0-10.664-4.774-10.664-10.663C60.426,4.774,65.201,0,71.09,0h57.819
	c5.89,0,10.664,4.774,10.664,10.664C139.573,16.553,134.799,21.327,128.909,21.327z"/>
<path d="M149.093,68.483c-2.426,0-4.865-0.823-6.865-2.509c-4.504-3.795-5.077-10.522-1.282-15.026l13.46-15.972
	c3.795-4.503,10.522-5.077,15.025-1.282s5.077,10.522,1.282,15.026l-13.46,15.971C155.145,67.194,152.129,68.483,149.093,68.483z
	 M51.187,67.251c-2.811,0-5.616-1.104-7.711-3.296L31.248,51.159c-4.069-4.258-3.916-11.008,0.343-15.076
	c4.257-4.069,11.008-3.915,15.076,0.342l12.228,12.796c4.068,4.258,3.915,11.008-0.343,15.077
	C56.486,66.271,53.834,67.251,51.187,67.251z"/>
<g>
	<path d="M99.526,114.455h49.431c0-27.014-21.896-49.004-48.957-49.004h-0.237v48.815l0.237,0.236"/>
	<path d="M149.193,114.692H99.526V65.214H100c27.125,0,49.193,22.089,49.193,49.241V114.692z M100.05,114.218h48.668
		c-0.127-26.782-21.934-48.53-48.719-48.53v48.48L100.05,114.218z"/>
</g>
<g>
	<circle cx="50.711" cy="114.55" r="9.952"/>
	<path d="M50.711,124.739c-5.619,0-10.189-4.57-10.189-10.189s4.571-10.189,10.189-10.189c5.618,0,10.189,4.57,10.189,10.189
		S56.329,124.739,50.711,124.739z M50.711,104.834c-5.357,0-9.716,4.359-9.716,9.716c0,5.357,4.358,9.716,9.716,9.716
		c5.357,0,9.715-4.358,9.715-9.716C60.426,109.193,56.068,104.834,50.711,104.834z"/>
</g>
<g>
	<circle cx="99.526" cy="163.364" r="9.952"/>
	<path d="M99.526,173.555c-5.618,0-10.189-4.571-10.189-10.19c0-5.618,4.571-10.188,10.189-10.188c5.619,0,10.19,4.57,10.19,10.188
		C109.716,168.983,105.145,173.555,99.526,173.555z M99.526,153.649c-5.357,0-9.715,4.358-9.715,9.715
		c0,5.357,4.358,9.716,9.715,9.716s9.715-4.358,9.715-9.716C109.241,158.008,104.883,153.649,99.526,153.649z"/>
</g>
</svg>
