<?xml version="1.0" encoding="utf-8"?>
<!-- Generator: Adobe Illustrator 16.0.0, SVG Export Plug-In . SVG Version: 6.00 Build 0)  -->
<!DOCTYPE svg PUBLIC "-//W3C//DTD SVG 1.1//EN" "http://www.w3.org/Graphics/SVG/1.1/DTD/svg11.dtd">
<svg version="1.1" id="Layer_1" xmlns="http://www.w3.org/2000/svg" xmlns:xlink="http://www.w3.org/1999/xlink" x="0px" y="0px"
	 width="200px" height="200px" viewBox="0 0 200 200" enable-background="new 0 0 200 200" xml:space="preserve">
<path d="M200,99.999c0,29.591-12.854,56.181-33.28,74.486c-6.298-31.086-33.775-54.487-66.721-54.487s-60.423,23.401-66.721,54.487
	C12.851,156.178,0,129.588,0,99.999C0,44.77,44.77,0,99.999,0C155.228,0,200,44.77,200,99.999z"/>
<circle fill="#FFFFFF" cx="99.999" cy="99.999" r="77.75"/>
<path d="M166.72,174.488C149.021,190.352,125.639,200,99.999,200c-25.642,0-49.021-9.648-66.72-25.512
	C39.578,143.402,67.053,120,99.999,120C132.944,120,160.425,143.402,166.72,174.488z"/>
<circle cx="100" cy="72" r="36"/>
</svg>
