<?xml version="1.0" encoding="utf-8"?>
<!-- Generator: Adobe Illustrator 16.0.0, SVG Export Plug-In . SVG Version: 6.00 Build 0)  -->
<!DOCTYPE svg PUBLIC "-//W3C//DTD SVG 1.1//EN" "http://www.w3.org/Graphics/SVG/1.1/DTD/svg11.dtd">
<svg version="1.1" id="Layer_1" xmlns="http://www.w3.org/2000/svg" xmlns:xlink="http://www.w3.org/1999/xlink" x="0px" y="0px"
	 width="200px" height="200px" viewBox="0 0 200 200" enable-background="new 0 0 200 200" xml:space="preserve">
<g>
	<path fill-rule="evenodd" clip-rule="evenodd" d="M0,165.323c0-45.826,0-91.656,0-137.484c0.086-0.253,0.201-0.5,0.256-0.759
		c1.401-6.593,6.491-11.074,12.873-11.328C19.083,15.517,24.5,19.728,26.319,26c0.079,0.271,0.192,0.531,0.29,0.795
		c0.203-0.522,0.195-1.001,0.204-1.482c0.052-3.211-0.168-10.048,0.217-13.214c0.919-7.562,7.217-12.632,14.588-12.053
		c6.719,0.529,12.045,6.789,12.045,14.164c0.001,21.523,0,46.635,0,68.157c0,0.508,0,1.016,0,1.521c30.935,0,61.671,0,92.519,0
		c0-0.596,0-1.117,0-1.637c0-22.337-0.004-44.674,0.003-67.011c0.002-7.206,3.558-12.644,9.522-14.621
		c0.646-0.214,1.297-0.413,1.945-0.619c1.305,0,2.608,0,3.912,0c0.248,0.086,0.491,0.199,0.746,0.253
		c6.27,1.342,10.76,7.135,10.762,13.893c0.001,3.455,0,6.909,0,10.364c0,2.217,0,4.432,0,6.648c0.232-0.322,0.322-0.66,0.403-1
		c1.488-6.222,6.671-10.707,12.51-10.826c6.378-0.131,11.723,3.962,13.46,10.321c0.212,0.771,0.371,1.558,0.554,2.337
		c0,45.34,0,90.679,0,136.02c-0.073,0.218-0.183,0.431-0.218,0.656c-1.016,6.515-6.062,11.433-12.23,11.912
		c-6.283,0.487-11.936-3.56-13.835-9.912c-0.192-0.647-0.35-1.307-0.522-1.959c-0.121,5.712-0.12,11.4-0.121,17.089
		c-0.001,6.044-3.6,11.408-9,13.359c-0.968,0.351-1.978,0.566-2.968,0.845c-0.997,0-1.995,0-2.992,0
		c-0.243-0.084-0.482-0.193-0.733-0.243c-3.29-0.651-6.015-2.316-8.146-5.067c-2.28-2.942-3.058-6.383-3.056-10.11
		c0.011-23.479,0.005-46.958,0.005-70.436c0-0.518,0-1.034,0-1.58c-30.896,0-61.658,0-92.519,0c0,0.628,0,1.15,0,1.673
		c0,22.746,0.005,49.111-0.003,71.856c-0.002,7.556-5.913,13.787-13.157,13.905c-7.259,0.116-13.415-5.898-13.596-13.422
		c-0.122-5.043-0.07-13.709-0.096-18.754c-0.002-0.413,0-0.826,0-1.24c-0.369,0.346-0.477,0.72-0.59,1.091
		c-1.827,6.005-6.91,9.865-12.982,9.86c-5.74-0.004-10.833-3.995-12.608-9.891C0.4,166.877,0.209,166.097,0,165.323z"/>
</g>
</svg>
